<svg width="116" height="116" viewBox="0 0 116 116" fill="none" xmlns="http://www.w3.org/2000/svg">
<rect width="116" height="116" rx="9" fill="url(#paint0_linear_29_20)"/>
<path d="M54.7143 73.3088L55.0172 70.2795C55.2835 67.616 55.0008 64.9262 54.1865 62.3763C53.7376 60.9703 53.131 59.6195 52.3785 58.3498L50.0739 54.4612C47.9877 50.9412 45.5434 47.646 42.7801 44.6282L36.2983 37.5495L28.1886 29.7164C26.0586 27.659 22.599 27.9702 20.8704 30.3747C20.4606 30.9448 20.1792 31.597 20.0456 32.2862L19.5698 34.7424C19.3732 35.7572 19.2739 36.7884 19.273 37.8221L19.2669 45.5605C19.2617 52.137 22.4236 58.3136 27.7616 62.1548L34.7096 66.5695L29.9123 70.1199C29.3246 70.5548 28.7763 71.0405 28.2737 71.5713L27.716 72.1603C26.3109 73.6444 25.3985 75.5262 25.1034 77.5484C24.8741 79.1202 25.0256 80.724 25.5451 82.225L25.6988 82.6692C26.748 85.7006 28.9813 88.177 31.8885 89.5327L32.7947 89.9552C34.5022 90.7514 36.3509 91.2001 38.2333 91.2753L39.558 91.3281C42.2115 91.434 44.8272 90.6727 47.0094 89.1592C48.7872 87.9262 50.2057 86.2433 51.1201 84.2824L52.5329 81.2528C53.7016 78.7463 54.4391 76.0607 54.7143 73.3088Z" fill="white"/>
<path d="M61.2857 73.3088L60.9828 70.2795C60.7165 67.616 60.9992 64.9262 61.8134 62.3763C62.2624 60.9703 62.8689 59.6195 63.6214 58.3498L65.9261 54.4612C68.0123 50.9412 70.4565 47.646 73.2199 44.6282L79.7017 37.5495L87.8113 29.7164C89.9414 27.659 93.4009 27.9702 95.1296 30.3747C95.5394 30.9448 95.8208 31.597 95.9543 32.2862L96.4301 34.7424C96.6267 35.7572 96.7261 36.7884 96.7269 37.8221L96.733 45.5605C96.7382 52.137 93.5764 58.3136 88.2384 62.1548L81.2904 66.5695L86.0877 70.1199C86.6753 70.5548 87.2236 71.0405 87.7263 71.5713L88.2839 72.1603C89.689 73.6444 90.6015 75.5262 90.8965 77.5484C91.1258 79.1202 90.9744 80.724 90.4549 82.225L90.3011 82.6692C89.252 85.7006 87.0186 88.177 84.1114 89.5327L83.2052 89.9552C81.4978 90.7514 79.6491 91.2001 77.7666 91.2753L76.442 91.3281C73.7885 91.434 71.1727 90.6727 68.9906 89.1592C67.2128 87.9262 65.7942 86.2433 64.8799 84.2824L63.4671 81.2528C62.2983 78.7463 61.5609 76.0607 61.2857 73.3088Z" fill="white"/>
<defs>
<linearGradient id="paint0_linear_29_20" x1="58" y1="0" x2="58" y2="116" gradientUnits="userSpaceOnUse">
<stop stop-color="#FA6767"/>
<stop offset="1" stop-color="#FF922D"/>
</linearGradient>
</defs>
</svg>
